#!OML:ASF X:\für Bonn\!DataBase\2005_08_10_Bjorn_Final\c3d\bjorn.ASF
:FULLY-SPECIFIED
:DEGREES
96
root -1.13924 15.3582 16.6131 -356.54 -187.427 -731.844
lowerback 52.4433 -12.6563 6.10146
upperback 22.6259 0.481377 2.41497
thorax 4.57743 4.84013 0.116751
lowerneck -4.31962 -6.01886 -6.63873
upperneck 2.75005 -7.70032 3.38039
head 2.04781 -3.81743 1.96738
rclavicle 7.31528e-014 7.75757e-014
rhumerus -167.422 -149.662 115.022
rradius 20.968
rwrist 12.5034
rhand -12.0474 11.0818
rfingers 7.12502
rthumb 14.0113 -18.426
lclavicle 7.31528e-014 7.75757e-014
lhumerus 22.8343 -22.8741 38.4645
lradius 69.9656
lwrist -21.8046
lhand -23.7216 -378.412
lfingers 7.12502
lthumb 2.74627 11.5501
rfemur -60.1746 -14.086 -4.7597
rtibia 79.3837
rfoot -18.1339 15.582
rtoes -17.3055
lfemur 125.667 171.442 145.888
ltibia 84.1079
lfoot -29.7405 11.9365
ltoes -20.5879
97
root -1.15707 15.2258 16.61 -356.724 -187.692 -731.985
lowerback 52.7533 -12.8575 6.34114
upperback 22.5168 0.404523 2.61227
thorax 4.43622 4.79074 0.249858
lowerneck -4.49246 -5.9409 -6.69956
upperneck 3.07477 -7.57881 3.33154
head 2.18059 -3.75962 1.95956
rclavicle -3.18055e-015 -7.70291e-014
rhumerus -167.153 -149.345 115.439
rradius 20.8648
rwrist 11.9496
rhand -11.9939 11.035
rfingers 7.12502
rthumb 14.0629 -18.4692
lclavicle -3.18055e-015 -7.70291e-014
lhumerus 22.8568 -22.9901 37.3081
lradius 69.9685
lwrist -21.8289
lhand -23.67 -378.62
lfingers 7.12502
lthumb 2.79607 11.3412
rfemur -60.9992 -14.1624 -5.01096
rtibia 80.6674
rfoot -18.4261 15.9584
rtoes -17.5087
lfemur 124.991 171.374 145.73
ltibia 85.5138
lfoot -30.2908 11.8992
ltoes -20.3863
98
root -1.17468 15.0931 16.6058 -356.903 -187.96 -732.125
lowerback 53.0876 -13.0447 6.60342
upperback 22.3478 0.334428 2.81
thorax 4.22749 4.73619 0.367171
lowerneck -4.61338 -5.86323 -6.75132
upperneck 3.40639 -7.45861 3.25692
head 2.30518 -3.70309 1.94338
rclavicle -1.33583e-013 -1.46678e-013
rhumerus -167.013 -149.075 115.927
rradius 20.7856
rwrist 11.2907
rhand -11.9046 10.9629
rfingers 7.12502
rthumb 14.149 -18.5353
lclavicle -1.33583e-013 -1.46678e-013
lhumerus 22.8506 -23.1855 36.1844
lradius 69.9846
lwrist -21.4577
lhand -23.5461 -378.682
lfingers 7.12502
lthumb 2.91571 11.2775
rfemur -61.8201 -14.2368 -5.25568
rtibia 81.935
rfoot -18.7825 16.2785
rtoes -17.8125
lfemur 124.319 171.299 145.577
ltibia 86.9063
lfoot -30.7609 11.8675
ltoes -20.3608
99
root -1.19184 14.9623 16.6011 -357.14 -188.219 -732.246
lowerback 53.5038 -13.2531 6.87909
upperback 22.1428 0.262659 2.98391
thorax 3.9754 4.68484 0.454355
lowerneck -4.74391 -5.75612 -6.7683
upperneck 3.78429 -7.29986 3.16812
head 2.44312 -3.62792 1.91792
rclavicle -1.20861e-013 -5.56349e-014
rhumerus -166.872 -148.666 116.313
rradius 20.6712
rwrist 10.7457
rhand -11.8168 10.9409
rfingers 7.12502
rthumb 14.2335 -18.5514
lclavicle -1.20861e-013 -5.56349e-014
lhumerus 22.8505 -23.471 35
lradius 69.9944
lwrist -20.753
lhand -23.4303 -378.595
lfingers 7.12502
lthumb 3.02751 11.3628
rfemur -62.5592 -14.3002 -5.49286
rtibia 83.1781
rfoot -19.0952 16.6742
rtoes -17.8832
lfemur 123.737 171.233 145.479
ltibia 88.2777
lfoot -31.1972 11.8013
ltoes -20.2902
100
root -1.20752 14.8303 16.5962 -357.35 -188.462 -732.387
lowerback 53.824 -13.4498 7.1345
upperback 21.9786 0.190255 3.15444
thorax 3.77811 4.63426 0.550503
lowerneck -4.92649 -5.63175 -6.6741
upperneck 4.10938 -7.1152 2.97301
head 2.56152 -3.53983 1.8386
rclavicle 7.31528e-014 -2.5109e-014
rhumerus -166.635 -148.065 116.566
rradius 20.5333
rwrist 10.34
rhand -11.6841 10.9473
rfingers 7.12502
rthumb 14.3614 -18.536
lclavicle 7.31528e-014 -2.5109e-014
lhumerus 22.8926 -23.7546 33.8135
lradius 70.0003
lwrist -19.8114
lhand -23.3352 -378.351
lfingers 7.12502
lthumb 3.11943 11.6059
rfemur -63.3388 -14.3998 -5.73396
rtibia 84.411
rfoot -19.4086 17.0108
rtoes -18.246
lfemur 123.116 171.176 145.356
ltibia 89.6347
lfoot -31.5446 11.8518
ltoes -20.728
101
root -1.22257 14.7012 16.5904 -357.608 -188.722 -732.509
lowerback 54.1471 -13.6435 7.34138
upperback 21.8659 0.13125 3.33526
thorax 3.63982 4.59502 0.680706
lowerneck -5.16404 -5.48551 -6.59647
upperneck 4.39256 -6.88928 2.69903
head 2.672 -3.43238 1.73776
rclavicle -3.49861e-014 -1.47101e-014
rhumerus -166.276 -147.373 116.725
rradius 20.3641
rwrist 10.0155
rhand -11.6013 10.97
rfingers 7.12502
rthumb 14.4412 -18.5076
lclavicle -3.49861e-014 -1.47101e-014
lhumerus 22.9293 -24.0005 32.6633
lradius 69.9882
lwrist -18.6961
lhand -23.3414 -377.915
lfingers 7.12502
lthumb 3.1134 12.0424
rfemur -64.0377 -14.4622 -5.96892
rtibia 85.6074
rfoot -19.725 17.3851
rtoes -18.4903
lfemur 122.569 171.079 145.278
ltibia 90.9711
lfoot -31.8382 11.8681
ltoes -21.1912
102
root -1.23694 14.5731 16.5839 -357.872 -188.981 -732.648
lowerback 54.3374 -13.8193 7.47294
upperback 21.8814 0.0813797 3.53241
thorax 3.65357 4.56904 0.867224
lowerneck -5.48847 -5.32567 -6.50453
upperneck 4.6003 -6.63762 2.38265
head 2.77068 -3.31266 1.62091
rclavicle -6.99722e-014 -1.3418e-015
rhumerus -165.669 -146.497 116.708
rradius 20.1369
rwrist 9.8739
rhand -11.5347 10.9714
rfingers 7.12502
rthumb 14.5054 -18.5016
lclavicle -6.99722e-014 -1.3418e-015
lhumerus 23.0196 -24.1752 31.5144
lradius 69.9629
lwrist -17.3456
lhand -23.4749 -377.41
lfingers 7.12502
lthumb 2.98445 12.5491
rfemur -64.7185 -14.5363 -6.20912
rtibia 86.78
rfoot -20.0422 17.7152
rtoes -18.9255
lfemur 122.046 170.995 145.191
ltibia 92.2845
lfoot -32.1207 11.8952
ltoes -21.7251
103
root -1.25019 14.4479 16.5773 -358.158 -189.238 -732.774
lowerback 54.4753 -13.9915 7.60147
upperback 21.9524 0.0512527 3.72826
thorax 3.73467 4.56233 1.05198
lowerneck -5.86327 -5.1534 -6.43751
upperneck 4.79777 -6.36718 2.10452
head 2.87913 -3.18408 1.52166
rclavicle 1.11319e-013 1.7826e-013
rhumerus -164.967 -145.513 116.577
rradius 19.8821
rwrist 9.76664
rhand -11.5775 10.9273
rfingers 7.12502
rthumb 14.4641 -18.5486
lclavicle 1.11319e-013 1.7826e-013
lhumerus 23.1815 -24.3189 30.3676
lradius 69.8659
lwrist -15.8309
lhand -23.5865 -376.893
lfingers 7.12502
lthumb 2.87672 13.0677
rfemur -65.362 -14.5942 -6.4413
rtibia 87.9229
rfoot -20.3281 18.0543
rtoes -19.1844
lfemur 121.567 170.918 145.137
ltibia 93.5731
lfoot -32.3436 11.9695
ltoes -22.4776
104
root -1.26196 14.322 16.5712 -358.449 -189.472 -732.914
lowerback 54.5804 -14.1437 7.69018
upperback 22.0276 0.0173563 3.94501
thorax 3.82025 4.54664 1.27677
lowerneck -6.25531 -4.96112 -6.32758
upperneck 5.04406 -6.06315 1.73109
head 3.00185 -3.04159 1.38532
rclavicle -1.49486e-013 -5.98839e-014
rhumerus -164.332 -144.64 116.484
rradius 19.6427
rwrist 9.61819
rhand -11.7023 10.7952
rfingers 7.12502
rthumb 14.3439 -18.6893
lclavicle -1.49486e-013 -5.98839e-014
lhumerus 23.3233 -24.5088 29.2599
lradius 69.738
lwrist -14.0301
lhand -23.5148 -376.287
lfingers 7.12502
lthumb 2.94599 13.6724
rfemur -66.0016 -14.6919 -6.67263
rtibia 89.0633
rfoot -20.6581 18.3554
rtoes -19.522
lfemur 121.08 170.85 145.079
ltibia 94.8637
lfoot -32.487 12.108
ltoes -23.3408
105
root -1.27373 14.1967 16.5639 -358.746 -189.718 -733.083
lowerback 54.6397 -14.2964 7.79539
upperback 22.1 -0.0306658 4.12036
thorax 3.90649 4.52812 1.45338
lowerneck -6.60467 -4.755 -6.20676
upperneck 5.28845 -5.74163 1.33825
head 3.11653 -2.89206 1.24332
rclavicle -9.54166e-014 -6.92765e-014
rhumerus -163.664 -143.587 116.253
rradius 19.3213
rwrist 9.70563
rhand -11.9051 10.7414
rfingers 7.12502
rthumb 14.1484 -18.7568
lclavicle -9.54166e-014 -6.92765e-014
lhumerus 23.463 -24.7915 28.0858
lradius 69.6435
lwrist -11.9644
lhand -23.3804 -375.644
lfingers 7.12502
lthumb 3.07571 14.3132
rfemur -66.6305 -14.8069 -6.94005
rtibia 90.1837
rfoot -20.9513 18.6935
rtoes -19.8934
lfemur 120.614 170.798 144.999
ltibia 96.1455
lfoot -32.6587 12.1683
ltoes -24.0974
106
root -1.28311 14.0705 16.5571 -359.082 -189.938 -733.226
lowerback 54.7486 -14.4406 7.88967
upperback 22.129 -0.0734313 4.31928
thorax 3.93964 4.50431 1.65569
lowerneck -6.84645 -4.53012 -6.04074
upperneck 5.52464 -5.39422 0.83281
head 3.20352 -2.7327 1.06062
rclavicle -8.90555e-014 -9.0447e-014
rhumerus -163.17 -142.673 116.128
rradius 19.036
rwrist 9.63918
rhand -12.1378 10.6446
rfingers 7.12502
rthumb 13.9242 -18.8692
lclavicle -8.90555e-014 -9.0447e-014
lhumerus 23.5098 -25.1669 26.9454
lradius 69.6199
lwrist -9.70623
lhand -23.2447 -375.03
lfingers 7.12502
lthumb 3.20676 14.9258
rfemur -67.2161 -14.9153 -7.17825
rtibia 91.3035
rfoot -21.2005 19.025
rtoes -20.0592
lfemur 120.192 170.736 144.971
ltibia 97.4332
lfoot -32.7903 12.2612
ltoes -25.0375
107
root -1.29284 13.9453 16.5495 -359.417 -190.17 -733.336
lowerback 54.8269 -14.5954 8.03061
upperback 22.1432 -0.12517 4.48668
thorax 3.96059 4.48092 1.80588
lowerneck -7.00033 -4.28659 -5.85518
upperneck 5.77736 -5.02469 0.297117
head 3.28041 -2.56414 0.867811
rclavicle 5.08889e-014 8.10048e-014
rhumerus -162.718 -141.623 115.916
rradius 18.7213
rwrist 9.70506
rhand -12.3452 10.6243
rfingers 7.12502
rthumb 13.7244 -18.9031
lclavicle 5.08889e-014 8.10048e-014
lhumerus 23.3895 -25.4095 26.1323
lradius 69.5622
lwrist -7.72409
lhand -23.1011 -374.617
lfingers 7.12502
lthumb 3.34544 15.3366
rfemur -67.787 -15.0214 -7.38598
rtibia 92.4051
rfoot -21.4502 19.3642
rtoes -20.0899
lfemur 119.756 170.669 144.981
ltibia 98.7342
lfoot -32.9105 12.3281
ltoes -25.8631
108
root -1.30098 13.8186 16.5425 -359.786 -190.365 -733.479
lowerback 54.9536 -14.7505 8.1549
upperback 22.0834 -0.207583 4.62668
thorax 3.89395 4.43468 1.93774
lowerneck -7.07832 -4.02184 -5.61329
upperneck 6.13143 -4.6293 -0.279335
head 3.37797 -2.38515 0.65395
rclavicle -8.5875e-014 -9.78021e-014
rhumerus -162.515 -140.73 115.806
rradius 18.4549
rwrist 9.63133
rhand -12.5108 10.5192
rfingers 7.12502
rthumb 13.5647 -19.0189
lclavicle -8.5875e-014 -9.78021e-014
lhumerus 23.1061 -25.68 25.403
lradius 69.5423
lwrist -5.83964
lhand -23.0799 -374.374
lfingers 7.12502
lthumb 3.36594 15.5787
rfemur -68.3245 -15.1817 -7.62124
rtibia 93.5105
rfoot -21.7042 19.7327
rtoes -20.2284
lfemur 119.365 170.626 144.971
ltibia 100.03
lfoot -32.9863 12.4389
ltoes -26.7669
109
root -1.3084 13.6923 16.5349 -360.164 -190.568 -733.609
lowerback 55.0915 -14.8977 8.29283
upperback 21.9883 -0.288613 4.75968
thorax 3.78754 4.38524 2.05308
lowerneck -7.08444 -3.7719 -5.36971
upperneck 6.532 -4.24628 -0.908361
head 3.48166 -2.21445 0.422584
rclavicle 8.5875e-014 1.16687e-013
rhumerus -162.418 -139.761 115.696
rradius 18.2032
rwrist 9.63926
rhand -12.6488 10.3261
rfingers 7.12502
rthumb 13.4317 -19.2208
lclavicle 8.5875e-014 1.16687e-013
lhumerus 22.774 -26.0388 24.6554
lradius 69.5776
lwrist -3.95414
lhand -23.1159 -374.153
lfingers 7.12502
lthumb 3.33114 15.8003
rfemur -68.856 -15.3456 -7.83577
rtibia 94.6071
rfoot -21.9768 20.0661
rtoes -20.3872
lfemur 118.985 170.56 145.004
ltibia 101.334
lfoot -33.0818 12.3824
ltoes -27.4924
110
root -1.31497 13.5638 16.5268 -360.546 -190.771 -733.751
lowerback 55.1833 -15.0424 8.42174
upperback 21.905 -0.383739 4.87552
thorax 3.697 4.33044 2.15832
lowerneck -7.19401 -3.5001 -5.23094
upperneck 7.00261 -3.81959 -1.44392
head 3.64019 -2.02468 0.23964
rclavicle -3.18055e-014 1.28216e-014
rhumerus -162.38 -138.834 115.612
rradius 17.9479
rwrist 9.583
rhand -12.7442 10.1074
rfingers 7.12502
rthumb 13.3397 -19.4456
lclavicle -3.18055e-014 1.28216e-014
lhumerus 22.4613 -26.4485 23.8139
lradius 69.5864
lwrist -2.2259
lhand -23.2926 -373.897
lfingers 7.12502
lthumb 3.16055 16.0589
rfemur -69.3876 -15.5305 -8.06371
rtibia 95.7001
rfoot -22.1923 20.4784
rtoes -20.3413
lfemur 118.588 170.498 145.032
ltibia 102.655
lfoot -33.1042 12.4302
ltoes -28.473
